<svg width="64" height="64" viewBox="0 0 64 64" xmlns="http://www.w3.org/2000/svg">
  <!-- 颜色定义 -->
  <defs>
    <!-- 主色系 -->
    <radialGradient id="mainPoint" cx="30%" cy="30%" r="70%">
      <stop offset="0%" stop-color="#2ED9A3"/>
      <stop offset="100%" stop-color="#1EB8A0"/>
    </radialGradient>
    
    <!-- 对比色粒子 -->
    <radialGradient id="accentParticle" cx="30%" cy="30%" r="70%">
      <stop offset="0%" stop-color="#FF7D7D"/>
      <stop offset="100%" stop-color="#FF5252"/>
    </radialGradient>

    <!-- 光晕效果 -->
    <filter id="glow" x="-20%" y="-20%" width="140%" height="140%">
      <feGaussianBlur stdDeviation="2" result="blur"/>
      <feComposite in="SourceGraphic" in2="blur" operator="over"/>
    </filter>
  </defs>

  <!-- 主点阵结构 -->
  <g transform="translate(2,2)">
    <!-- 核心9点 -->
    <circle cx="8" cy="8" r="5" fill="url(#mainPoint)"/>
    <circle cx="28" cy="8" r="3" fill="url(#mainPoint)" opacity="0.8"/>
    <circle cx="48" cy="8" r="5" fill="url(#mainPoint)"/>
    <circle cx="8" cy="28" r="4" fill="url(#mainPoint)" opacity="0.9"/>
    <!-- 中心强化点 -->
    <circle cx="28" cy="28" r="8" fill="url(#mainPoint)" filter="url(#glow)">
      <animate attributeName="r" values="8;9;8" dur="3s" repeatCount="indefinite"/>
    </circle>
    <circle cx="48" cy="28" r="4" fill="url(#mainPoint)" opacity="0.9"/>
    <circle cx="8" cy="48" r="5" fill="url(#mainPoint)"/>
    <circle cx="28" cy="48" r="3" fill="url(#mainPoint)" opacity="0.8"/>
    <circle cx="48" cy="48" r="5" fill="url(#mainPoint)"/>
  </g>

  <!-- 新增对比色粒子系统 -->
  <g opacity="0.7">
    <!-- 对角线粒子 -->
    <circle cx="5" cy="5" r="1.8" fill="url(#accentParticle)" filter="url(#glow)"/>
    <circle cx="59" cy="59" r="1.5" fill="url(#accentParticle)" filter="url(#glow)"/>
    
    <!-- 黄金分割点粒子 -->
    <circle cx="40" cy="15" r="1.2" fill="#FFB74D"/>
    <circle cx="15" cy="40" r="1.2" fill="#FFB74D"/>
    
    <!-- 动态轨迹粒子 -->
    <circle cx="10" cy="32" r="1.3" fill="#FF7D7D"/>
    <circle cx="32" cy="10" r="1.1" fill="#FF7D7D"/>
    <circle cx="54" cy="32" r="1.4" fill="#FF7D7D"/>
    <circle cx="32" cy="54" r="1.6" fill="#FF7D7D"/>
  </g>

  
</svg>